<svg xmlns="http://www.w3.org/2000/svg" xmlns:xlink="http://www.w3.org/1999/xlink" width="500" zoomAndPan="magnify" viewBox="0 0 375 374.999991" height="500" preserveAspectRatio="xMidYMid meet" version="1.2"><defs><clipPath id="97f8b8bf04"><path d="M 167.832031 95 L 196.332031 95 L 196.332031 123.894531 L 167.832031 123.894531 Z M 167.832031 95 "/></clipPath><clipPath id="b3652f7352"><path d="M 169 108 L 196 108 L 196 123.894531 L 169 123.894531 Z M 169 108 "/></clipPath><clipPath id="dcc78fe00d"><path d="M 174 94.644531 L 191 94.644531 L 191 108 L 174 108 Z M 174 94.644531 "/></clipPath><clipPath id="58bef46ada"><path d="M 28 54 L 355.097656 54 L 355.097656 210.75 L 28 210.75 Z M 28 54 "/></clipPath><clipPath id="abc5677c59"><path d="M 28 54 L 355.097656 54 L 355.097656 210.75 L 28 210.75 Z M 28 54 "/></clipPath></defs><g id="51fc77f17f"><g clip-rule="nonzero" clip-path="url(#97f8b8bf04)"><path style=" stroke:none;fill-rule:nonzero;fill:#f3a61e;fill-opacity:1;" d="M 196.320312 109.835938 C 196.320312 111.8125 195.90625 113.699219 195.160156 115.402344 C 192.976562 120.394531 187.941406 123.890625 182.082031 123.890625 C 176.21875 123.890625 171.679688 120.730469 169.34375 116.121094 C 168.382812 114.230469 167.839844 112.097656 167.839844 109.835938 C 167.839844 102.074219 174.214844 95.785156 182.082031 95.785156 C 189.945312 95.785156 196.320312 102.074219 196.320312 109.835938 Z M 196.320312 109.835938 "/></g><g clip-rule="nonzero" clip-path="url(#b3652f7352)"><path style=" stroke:none;fill-rule:nonzero;fill:#3d3b3c;fill-opacity:1;" d="M 195.160156 115.402344 C 192.976562 120.394531 187.941406 123.890625 182.082031 123.890625 C 176.21875 123.890625 171.679688 120.730469 169.34375 116.121094 C 169.753906 115.894531 170.21875 115.710938 170.734375 115.574219 C 172.496094 115.109375 175.101562 114.507812 175.101562 114.507812 L 175.902344 112.554688 L 175.773438 108.058594 C 175.773438 108.058594 177.550781 107.925781 178.523438 108.058594 C 179.496094 108.191406 183.164062 109.652344 183.164062 109.652344 L 185.222656 108.398438 C 185.222656 108.398438 186.816406 108.214844 187.605469 108.257812 C 188.398438 108.300781 189.4375 112.828125 189.4375 112.828125 L 190.195312 114.128906 C 190.195312 114.128906 191.527344 114.773438 193.324219 115.136719 C 194.039062 115.277344 194.632812 115.308594 195.160156 115.402344 Z M 195.160156 115.402344 "/></g><g clip-rule="nonzero" clip-path="url(#dcc78fe00d)"><path style=" stroke:none;fill-rule:nonzero;fill:#56352c;fill-opacity:1;" d="M 177.8125 104.984375 C 177.8125 104.984375 176.742188 104.253906 176.523438 103.976562 C 176.304688 103.703125 175.832031 103.078125 175.539062 102.335938 C 175.246094 101.59375 174.382812 100.535156 174.699219 99.867188 C 175.015625 99.203125 176.675781 97.832031 176.675781 97.832031 C 176.675781 97.832031 176.976562 96.007812 178.324219 95.445312 C 179.675781 94.882812 183.976562 94.644531 186.230469 95.785156 C 187.390625 96.367188 188.851562 96.566406 189.203125 96.984375 C 189.203125 96.984375 188.589844 97.101562 188.3125 97.5625 C 188.214844 97.726562 188.988281 98.191406 189.097656 98.296875 C 189.730469 98.898438 190.046875 98.816406 190.046875 98.816406 C 190.046875 98.816406 189.285156 99.128906 188.445312 99.003906 C 188.445312 99.003906 188.96875 99.417969 189.582031 100.542969 C 190.195312 101.667969 189.6875 102.128906 189.6875 102.128906 C 189.6875 102.128906 189.765625 101.519531 188.585938 101.292969 C 188.585938 101.292969 188.691406 101.898438 188.441406 102.554688 C 188.195312 103.207031 187.285156 104.226562 187.285156 104.226562 L 182.082031 107.511719 Z M 177.8125 104.984375 "/></g><path style=" stroke:none;fill-rule:nonzero;fill:#da8059;fill-opacity:1;" d="M 177.367188 104.46875 C 177.367188 104.46875 176.929688 103.363281 176.25 103.46875 C 175.574219 103.574219 175.359375 104.804688 175.699219 105.9375 C 176.039062 107.070312 176.789062 108.191406 177.589844 107.589844 C 178.199219 107.132812 177.367188 104.46875 177.367188 104.46875 Z M 177.367188 104.46875 "/><path style=" stroke:none;fill-rule:nonzero;fill:#da8059;fill-opacity:1;" d="M 186.816406 104.023438 C 186.816406 104.023438 187.109375 102.945312 187.757812 102.976562 C 188.402344 103.007812 188.730469 104.136719 188.53125 105.230469 C 188.328125 106.328125 187.742188 107.449219 186.929688 106.96875 C 186.3125 106.601562 186.816406 104.023438 186.816406 104.023438 Z M 186.816406 104.023438 "/><path style=" stroke:none;fill-rule:nonzero;fill:#fbc092;fill-opacity:1;" d="M 187.605469 114.148438 L 186.765625 116.570312 L 180.1875 117.96875 L 176.675781 114.609375 C 176.675781 114.609375 178.261719 113.875 178.601562 113.0625 C 178.71875 112.769531 178.71875 112.1875 178.671875 111.554688 C 178.578125 110.421875 178.324219 109.132812 178.324219 109.132812 L 186.003906 108.742188 C 186.003906 108.742188 185.933594 109.933594 185.914062 111.09375 C 185.898438 111.976562 185.910156 112.839844 186.003906 113.148438 C 186.214844 113.855469 187.605469 114.148438 187.605469 114.148438 Z M 187.605469 114.148438 "/><path style=" stroke:none;fill-rule:nonzero;fill:#da8059;fill-opacity:1;" d="M 186.003906 108.742188 C 186.003906 108.742188 185.933594 109.933594 185.914062 111.09375 C 184.746094 112.1875 182.753906 113.964844 181.210938 113.742188 C 180.132812 113.585938 179.09375 112.769531 178.671875 111.554688 C 178.578125 110.421875 178.324219 109.132812 178.324219 109.132812 Z M 186.003906 108.742188 "/><path style=" stroke:none;fill-rule:nonzero;fill:#fbc092;fill-opacity:1;" d="M 176.976562 103.726562 C 176.976562 103.726562 177.4375 107.027344 177.40625 107.726562 C 177.371094 108.429688 177.453125 108.933594 177.898438 109.289062 C 178.34375 109.648438 180.601562 111.679688 181.460938 111.8125 C 182.316406 111.941406 183.089844 111.894531 183.667969 111.550781 C 184.246094 111.210938 185.992188 109.792969 186.40625 109.453125 C 186.816406 109.113281 186.949219 108.753906 186.949219 107.800781 C 186.949219 106.851562 186.867188 104.476562 186.949219 103.109375 C 186.988281 102.4375 186.652344 98.375 186.652344 98.375 L 180.898438 96.832031 L 177.652344 98.292969 L 176.25 99.613281 Z M 176.976562 103.726562 "/><path style="fill:none;stroke-width:6;stroke-linecap:round;stroke-linejoin:round;stroke:#da8059;stroke-opacity:1;stroke-miterlimit:4;" d="M 206.611504 148.344066 C 206.611504 148.344066 210.775536 184.298262 209.661218 190.122248 " transform="matrix(0.0666046,0,0,0.0657303,167.840281,93.788358)"/><path style="fill:none;stroke-width:6;stroke-linecap:round;stroke-linejoin:round;stroke:#7d2929;stroke-opacity:1;stroke-miterlimit:4;" d="M 145.910484 144.005791 C 145.910484 144.005791 167.258475 127.84126 177.99112 127.128119 C 188.782412 126.355549 192.00807 128.435544 192.00807 128.435544 " transform="matrix(0.0666046,0,0,0.0657303,167.840281,93.788358)"/><path style="fill:none;stroke-width:6;stroke-linecap:round;stroke-linejoin:round;stroke:#7d2929;stroke-opacity:1;stroke-miterlimit:4;" d="M 230.070836 128.435544 C 230.070836 128.435544 234.117571 127.128119 242.56293 126.949833 C 251.00829 126.71212 269.306569 139.786373 269.306569 139.786373 " transform="matrix(0.0666046,0,0,0.0657303,167.840281,93.788358)"/><path style=" stroke:none;fill-rule:nonzero;fill:#3d1119;fill-opacity:1;" d="M 180.207031 104.183594 C 180.226562 104.375 180.199219 104.539062 180.125 104.679688 C 180.054688 104.820312 179.957031 104.898438 179.835938 104.910156 C 179.71875 104.921875 179.609375 104.863281 179.511719 104.738281 C 179.414062 104.613281 179.355469 104.453125 179.335938 104.265625 C 179.316406 104.078125 179.34375 103.914062 179.417969 103.769531 C 179.488281 103.628906 179.585938 103.554688 179.707031 103.542969 C 179.828125 103.53125 179.9375 103.585938 180.035156 103.714844 C 180.132812 103.839844 180.1875 103.996094 180.207031 104.183594 Z M 180.207031 104.183594 "/><path style=" stroke:none;fill-rule:nonzero;fill:#3d1119;fill-opacity:1;" d="M 184.226562 103.300781 C 184.34375 103.324219 184.433594 103.40625 184.492188 103.554688 C 184.550781 103.703125 184.5625 103.871094 184.527344 104.054688 C 184.492188 104.242188 184.421875 104.394531 184.3125 104.511719 C 184.203125 104.625 184.089844 104.675781 183.96875 104.652344 C 183.851562 104.628906 183.761719 104.546875 183.703125 104.398438 C 183.644531 104.25 183.632812 104.082031 183.667969 103.898438 C 183.703125 103.710938 183.777344 103.558594 183.882812 103.441406 C 183.992188 103.328125 184.105469 103.28125 184.226562 103.300781 Z M 184.226562 103.300781 "/><path style="fill:none;stroke-width:3;stroke-linecap:round;stroke-linejoin:round;stroke:#7d2929;stroke-opacity:1;stroke-miterlimit:4;" d="M 174.296275 217.102752 C 174.296275 217.102752 186.553776 230.474147 203.151253 230.474147 C 229.660298 230.474147 244.146435 217.102752 244.146435 217.102752 " transform="matrix(0.0666046,0,0,0.0657303,167.840281,93.788358)"/><path style=" stroke:none;fill-rule:nonzero;fill:#3d3b3c;fill-opacity:1;" d="M 182.429688 117.246094 C 182.429688 117.246094 180.578125 116.765625 179.265625 115.605469 C 177.953125 114.445312 176.679688 113.109375 176.128906 111.484375 C 175.582031 109.863281 175.921875 109.414062 176.582031 109.21875 L 175.773438 108.058594 C 175.773438 108.058594 173.972656 108.070312 173.71875 108.84375 C 173.464844 109.617188 174.910156 111.960938 174.875 112.3125 C 174.839844 112.667969 174.328125 112.496094 173.691406 112.847656 C 173.050781 113.203125 173.085938 114.421875 173.765625 115.332031 C 174.445312 116.242188 175.21875 118.070312 176.515625 118.472656 C 177.8125 118.878906 181.773438 117.96875 181.773438 117.96875 C 181.773438 117.96875 184.695312 119.011719 186.621094 118.40625 C 188.550781 117.800781 190.4375 115.351562 190.941406 114.902344 C 191.441406 114.453125 191.894531 114.253906 191.441406 113.625 C 190.984375 112.996094 190.210938 112.433594 190.210938 112.433594 C 190.210938 112.433594 190.9375 109.59375 190.460938 108.9375 C 189.984375 108.28125 187.605469 108.257812 187.605469 108.257812 C 187.605469 108.257812 187.980469 109.371094 187.914062 109.835938 C 187.847656 110.300781 188.242188 110.191406 188.324219 110.792969 C 188.421875 111.527344 183.390625 116.980469 182.429688 117.246094 Z M 182.429688 117.246094 "/><path style=" stroke:none;fill-rule:nonzero;fill:#56352c;fill-opacity:1;" d="M 177.046875 104.226562 C 177.046875 104.226562 177.210938 103.605469 177.265625 102.976562 C 177.320312 102.347656 176.949219 100.6875 177.265625 100.308594 C 177.4375 100.101562 178.234375 99.488281 179.09375 99.183594 C 179.800781 98.933594 180.574219 98.980469 180.84375 98.894531 C 181.230469 98.769531 182.765625 98.464844 183.871094 98.8125 C 184.976562 99.164062 185.738281 99.757812 185.875 100.703125 C 186.011719 101.644531 186.65625 103.296875 186.953125 103.253906 C 187.25 103.210938 187.277344 97.832031 187.277344 97.832031 L 183.667969 96.421875 L 178.945312 96.578125 L 175.539062 99.589844 Z M 177.046875 104.226562 "/><g clip-rule="nonzero" clip-path="url(#58bef46ada)"><path style=" stroke:none;fill-rule:nonzero;fill:#000000;fill-opacity:1;" d="M 354.730469 70.261719 C 352.117188 65.273438 348.019531 61.191406 342.542969 58.121094 C 338.179688 55.675781 333.234375 54.445312 327.839844 54.445312 C 326.308594 54.445312 324.710938 54.539062 323.105469 54.742188 C 314.652344 55.796875 307.472656 58.621094 301.667969 63.148438 L 302.128906 58.210938 L 270.453125 62.164062 L 269.613281 71.015625 L 264.28125 62.9375 L 245.34375 65.304688 L 238.851562 66.117188 L 237.128906 66.324219 L 221.875 68.234375 L 185.683594 72.757812 L 181.765625 81.847656 L 179.480469 73.53125 L 145.515625 77.773438 L 144.445312 89.410156 C 143.164062 88.199219 141.765625 87.082031 140.242188 86.074219 C 134.515625 82.292969 127.933594 80.367188 120.6875 80.367188 C 118.90625 80.367188 117.058594 80.488281 115.207031 80.722656 C 104.40625 82.066406 95.679688 86.816406 89.265625 94.820312 C 89.265625 94.828125 89.265625 94.828125 89.257812 94.835938 C 88.097656 93.796875 86.839844 92.824219 85.492188 91.90625 C 82.5 89.878906 78.910156 88.4375 74.828125 87.632812 C 72.585938 87.195312 70.222656 86.972656 67.8125 86.972656 C 66.070312 86.972656 64.261719 87.085938 62.433594 87.316406 C 51.808594 88.644531 43.140625 93.21875 36.664062 100.914062 C 30.023438 108.789062 27.355469 118.28125 28.710938 129.117188 C 29.871094 138.382812 34.492188 145.847656 42.066406 150.710938 C 47.824219 154.414062 54.367188 156.292969 61.511719 156.292969 C 63.289062 156.292969 65.117188 156.171875 66.964844 155.9375 C 72.175781 155.292969 77.289062 153.511719 82.160156 150.65625 C 85.925781 148.449219 89.148438 145.492188 91.800781 141.855469 C 92.652344 142.574219 93.550781 143.246094 94.503906 143.886719 C 89.597656 145.664062 85.554688 148.449219 82.460938 152.210938 C 77.703125 157.992188 75.644531 164.722656 76.515625 171.660156 C 76.984375 175.367188 78.410156 178.730469 80.683594 181.523438 L 70.773438 196.941406 L 75.683594 201.523438 C 79.578125 205.152344 84.601562 207.769531 90.621094 209.308594 C 94.292969 210.242188 98.144531 210.714844 102.097656 210.714844 C 104.253906 210.714844 106.476562 210.570312 108.710938 210.296875 C 117.097656 209.242188 123.792969 205.957031 128.59375 200.515625 C 129.761719 199.195312 130.761719 197.800781 131.617188 196.335938 C 132.539062 197.109375 133.496094 197.851562 134.53125 198.535156 C 140.265625 202.34375 146.863281 204.285156 154.152344 204.285156 C 155.9375 204.285156 157.792969 204.164062 159.664062 203.929688 C 170.480469 202.574219 179.199219 197.808594 185.578125 189.765625 C 186.261719 188.90625 186.898438 188.019531 187.496094 187.125 C 188.980469 188.65625 190.667969 190.046875 192.523438 191.289062 C 198.257812 195.097656 204.855469 197.035156 212.144531 197.035156 C 213.929688 197.035156 215.792969 196.914062 217.664062 196.679688 C 225.398438 195.714844 232.050781 192.992188 237.550781 188.582031 L 237.109375 193.328125 L 268.796875 189.371094 L 269.757812 178.976562 L 276 188.46875 L 302.109375 185.207031 L 308.003906 121.667969 C 312.011719 123.140625 316.28125 123.898438 320.757812 123.898438 C 322.507812 123.898438 324.304688 123.777344 326.121094 123.554688 C 331.839844 122.84375 337.039062 121.011719 341.582031 118.109375 C 345.519531 115.597656 348.785156 112.4375 351.300781 108.675781 L 355.097656 70.972656 Z M 67.0625 124.429688 C 67.011719 124.566406 66.722656 124.96875 66.003906 125.5 C 65.296875 126.03125 64.65625 126.339844 64.109375 126.402344 C 63.800781 126.445312 63.519531 126.460938 63.253906 126.460938 C 62.269531 126.460938 61.8125 126.203125 61.449219 125.929688 C 60.777344 125.40625 60.519531 124.9375 60.410156 124.085938 C 60.175781 122.1875 60.5625 120.632812 61.675781 119.046875 C 62.628906 117.6875 63.714844 117.042969 65.441406 116.832031 C 65.675781 116.796875 65.894531 116.785156 66.085938 116.785156 C 66.75 116.785156 67.101562 116.945312 67.359375 117.089844 C 67.628906 117.25 67.804688 117.386719 67.972656 117.910156 L 68.699219 120.140625 Z M 120.472656 117.691406 C 119.566406 118.988281 118.527344 119.609375 116.875 119.808594 C 116.550781 119.847656 116.246094 119.875 115.960938 119.875 C 114.9375 119.875 114.453125 119.617188 114.117188 119.355469 C 113.707031 119.050781 113.328125 118.679688 113.179688 117.488281 C 112.933594 115.515625 113.300781 113.945312 114.390625 112.382812 C 115.296875 111.078125 116.335938 110.46875 117.988281 110.257812 C 118.304688 110.21875 118.609375 110.203125 118.894531 110.203125 C 119.917969 110.203125 120.410156 110.460938 120.75 110.710938 C 121.152344 111.023438 121.539062 111.394531 121.683594 112.585938 C 121.929688 114.550781 121.554688 116.128906 120.472656 117.691406 Z M 130.359375 148.019531 C 129.925781 147.722656 129.480469 147.433594 129.03125 147.160156 C 130.265625 146.707031 131.464844 146.214844 132.628906 145.652344 C 131.84375 146.410156 131.085938 147.191406 130.359375 148.019531 Z M 160.402344 172.269531 C 159.5 173.574219 158.460938 174.1875 156.808594 174.394531 C 156.484375 174.433594 156.179688 174.453125 155.894531 174.453125 C 154.871094 174.453125 154.386719 174.195312 154.050781 173.9375 C 153.636719 173.628906 153.257812 173.257812 153.113281 172.066406 C 152.863281 170.105469 153.234375 168.523438 154.324219 166.964844 C 155.226562 165.667969 156.269531 165.046875 157.921875 164.84375 C 158.246094 164.804688 158.542969 164.78125 158.824219 164.78125 C 159.851562 164.78125 160.339844 165.046875 160.671875 165.296875 C 161.082031 165.601562 161.460938 165.976562 161.617188 167.167969 C 161.867188 169.128906 161.484375 170.707031 160.402344 172.269531 Z M 187.199219 142.152344 C 186.496094 143.03125 185.84375 143.921875 185.238281 144.832031 C 183.808594 143.367188 182.207031 142.03125 180.429688 140.839844 L 189.308594 139.730469 C 188.585938 140.5 187.875 141.304688 187.199219 142.152344 Z M 218.398438 165.023438 C 217.492188 166.328125 216.453125 166.941406 214.800781 167.148438 C 214.476562 167.191406 214.171875 167.207031 213.886719 167.207031 C 212.871094 167.207031 212.386719 166.949219 212.042969 166.691406 C 211.632812 166.382812 211.25 166.011719 211.105469 164.820312 C 210.855469 162.859375 211.234375 161.277344 212.316406 159.71875 C 213.222656 158.421875 214.261719 157.800781 215.914062 157.601562 C 216.238281 157.558594 216.542969 157.535156 216.816406 157.535156 C 217.84375 157.535156 218.335938 157.792969 218.671875 158.050781 C 219.085938 158.359375 219.464844 158.730469 219.609375 159.921875 C 219.859375 161.882812 219.484375 163.460938 218.398438 165.023438 Z M 242.367188 136.738281 C 241.167969 135.605469 239.851562 134.550781 238.433594 133.59375 L 242.707031 133.0625 Z M 263.21875 122.640625 L 263.445312 120.195312 L 264.914062 122.425781 Z M 275.929688 129.792969 L 275.398438 128.972656 L 276.019531 128.898438 Z M 296.53125 118.480469 L 296.859375 114.9375 C 298.03125 116.03125 299.3125 117.039062 300.691406 117.957031 Z M 296.53125 118.480469 "/></g><path style=" stroke:none;fill-rule:nonzero;fill:#ffffff;fill-opacity:1;" d="M 65.964844 147.949219 C 58.546875 148.878906 52.035156 147.542969 46.433594 143.945312 C 40.828125 140.34375 37.589844 135.070312 36.71875 128.117188 C 35.644531 119.550781 37.683594 112.210938 42.839844 106.089844 C 47.992188 99.972656 54.859375 96.375 63.441406 95.304688 C 66.972656 94.863281 70.25 94.941406 73.273438 95.535156 C 76.292969 96.128906 78.855469 97.140625 80.957031 98.566406 C 83.058594 99.992188 84.832031 101.5625 86.277344 103.273438 C 87.722656 104.988281 88.882812 106.886719 89.761719 108.980469 L 75.652344 115.425781 C 74.902344 113.113281 73.5 111.355469 71.453125 110.152344 C 69.40625 108.949219 67.070312 108.515625 64.445312 108.839844 C 60.457031 109.339844 57.335938 111.203125 55.074219 114.425781 C 52.8125 117.652344 51.925781 121.203125 52.410156 125.082031 C 52.785156 128.058594 54.148438 130.457031 56.503906 132.289062 C 58.863281 134.117188 61.730469 134.820312 65.113281 134.398438 C 67.082031 134.152344 68.992188 133.335938 70.84375 131.953125 C 72.691406 130.574219 73.945312 129.019531 74.601562 127.300781 L 87.53125 133.511719 C 85.171875 138.003906 82.023438 141.40625 78.085938 143.710938 C 74.144531 146.019531 70.105469 147.433594 65.964844 147.949219 Z M 65.964844 147.949219 "/><path style=" stroke:none;fill-rule:nonzero;fill:#ffffff;fill-opacity:1;" d="M 118.734375 141.359375 C 111.164062 142.304688 104.609375 140.933594 99.074219 137.25 C 93.535156 133.566406 90.339844 128.324219 89.488281 121.523438 C 88.46875 113.410156 90.496094 106.1875 95.574219 99.847656 C 100.648438 93.507812 107.527344 89.792969 116.207031 88.710938 C 123.730469 87.769531 130.257812 89.128906 135.789062 92.789062 C 141.324219 96.445312 144.511719 101.652344 145.359375 108.402344 C 146.382812 116.566406 144.371094 123.828125 139.328125 130.1875 C 134.28125 136.550781 127.417969 140.273438 118.734375 141.359375 Z M 117.878906 127.800781 C 121.816406 127.308594 124.894531 125.464844 127.105469 122.273438 C 129.320312 119.078125 130.179688 115.519531 129.6875 111.589844 C 129.296875 108.464844 127.925781 106.027344 125.578125 104.269531 C 123.234375 102.519531 120.367188 101.851562 116.984375 102.273438 C 113.050781 102.765625 109.972656 104.609375 107.761719 107.804688 C 105.546875 110.996094 104.683594 114.558594 105.179688 118.488281 C 105.570312 121.613281 106.9375 124.050781 109.289062 125.804688 C 111.632812 127.558594 114.496094 128.222656 117.878906 127.800781 Z M 117.878906 127.800781 "/><path style=" stroke:none;fill-rule:nonzero;fill:#ffffff;fill-opacity:1;" d="M 208.109375 129.265625 L 192.816406 131.179688 L 195.679688 100.039062 L 181.535156 132.585938 L 174.722656 133.4375 L 166.304688 103.710938 L 163.441406 134.847656 L 148.148438 136.761719 L 152.957031 84.960938 L 173.550781 82.386719 L 180.066406 106.136719 L 191.265625 80.175781 L 212.921875 77.46875 Z M 208.109375 129.265625 "/><path style=" stroke:none;fill-rule:nonzero;fill:#ffffff;fill-opacity:1;" d="M 231.582031 126.335938 L 216.289062 128.246094 L 221.09375 76.449219 L 236.386719 74.535156 Z M 231.582031 126.335938 "/><path style=" stroke:none;fill-rule:nonzero;fill:#ffffff;fill-opacity:1;" d="M 288.363281 119.238281 L 273.675781 121.074219 L 257.527344 96.535156 L 255.050781 123.402344 L 239.757812 125.3125 L 244.566406 73.515625 L 260.3125 71.546875 L 275.496094 94.519531 L 277.878906 69.351562 L 293.171875 67.441406 Z M 288.363281 119.238281 "/><path style=" stroke:none;fill-rule:nonzero;fill:#ffffff;fill-opacity:1;" d="M 325.121094 115.570312 C 317.851562 116.476562 311.382812 115.164062 305.710938 111.625 C 300.035156 108.085938 296.757812 102.789062 295.875 95.734375 C 294.824219 87.375 296.910156 80.078125 302.125 73.84375 C 307.339844 67.617188 314.671875 63.910156 324.109375 62.734375 C 329.660156 62.039062 334.488281 62.84375 338.597656 65.144531 C 342.707031 67.445312 345.703125 70.398438 347.589844 74 L 334.230469 81.503906 C 333.621094 79.941406 332.292969 78.632812 330.238281 77.585938 C 328.1875 76.539062 325.972656 76.164062 323.601562 76.460938 C 319.765625 76.941406 316.671875 78.757812 314.328125 81.917969 C 311.980469 85.078125 311.058594 88.671875 311.566406 92.703125 C 311.925781 95.574219 313.261719 97.953125 315.574219 99.839844 C 317.886719 101.726562 320.785156 102.449219 324.269531 102.015625 C 326.789062 101.699219 328.992188 100.65625 330.875 98.886719 L 331.015625 96.949219 L 321.628906 98.125 L 322.988281 84.445312 L 347.59375 81.371094 L 345.574219 102.65625 C 343.554688 106.183594 340.777344 109.074219 337.242188 111.332031 C 333.703125 113.585938 329.664062 115 325.121094 115.570312 Z M 325.121094 115.570312 "/><path style=" stroke:none;fill-rule:nonzero;fill:#ffffff;fill-opacity:1;" d="M 107.714844 202.304688 C 102.367188 202.972656 97.332031 202.707031 92.621094 201.503906 C 87.90625 200.304688 84.097656 198.347656 81.195312 195.640625 L 88.917969 183.621094 C 90.96875 185.667969 93.699219 187.207031 97.109375 188.242188 C 100.519531 189.273438 103.914062 189.578125 107.296875 189.15625 C 108.609375 188.992188 109.578125 188.640625 110.203125 188.101562 C 110.828125 187.5625 111.105469 187.019531 111.035156 186.460938 C 110.941406 185.707031 110.019531 185.105469 108.273438 184.65625 C 106.527344 184.210938 104.417969 183.757812 101.953125 183.296875 C 99.484375 182.835938 97.011719 182.214844 94.527344 181.421875 C 92.042969 180.632812 89.839844 179.320312 87.921875 177.488281 C 86 175.65625 84.867188 173.382812 84.527344 170.660156 C 83.925781 165.875 85.316406 161.425781 88.699219 157.320312 C 92.078125 153.214844 97.148438 150.738281 103.914062 149.890625 C 108.105469 149.367188 112.230469 149.582031 116.296875 150.53125 C 120.363281 151.480469 123.929688 153.148438 127 155.527344 L 119.164062 167.253906 C 116.949219 165.535156 114.347656 164.320312 111.363281 163.621094 C 108.378906 162.917969 105.601562 162.730469 103.027344 163.050781 C 102.066406 163.171875 101.332031 163.453125 100.824219 163.902344 C 100.316406 164.347656 100.101562 164.875 100.179688 165.480469 C 100.265625 166.183594 101.183594 166.761719 102.933594 167.207031 C 104.679688 167.652344 106.789062 168.121094 109.257812 168.601562 C 111.730469 169.085938 114.21875 169.722656 116.726562 170.511719 C 119.234375 171.296875 121.449219 172.605469 123.371094 174.4375 C 125.292969 176.269531 126.425781 178.546875 126.765625 181.269531 C 127.433594 186.609375 126.03125 191.25 122.550781 195.1875 C 119.070312 199.132812 114.125 201.503906 107.714844 202.304688 Z M 107.714844 202.304688 "/><path style=" stroke:none;fill-rule:nonzero;fill:#ffffff;fill-opacity:1;" d="M 158.667969 195.9375 C 151.097656 196.882812 144.542969 195.515625 139.003906 191.832031 C 133.46875 188.148438 130.273438 182.90625 129.421875 176.101562 C 128.402344 167.992188 130.429688 160.765625 135.507812 154.425781 C 140.582031 148.085938 147.460938 144.375 156.140625 143.289062 C 163.664062 142.351562 170.1875 143.710938 175.722656 147.367188 C 181.257812 151.027344 184.445312 156.230469 185.292969 162.984375 C 186.316406 171.144531 184.304688 178.40625 179.257812 184.769531 C 174.214844 191.128906 167.347656 194.855469 158.667969 195.9375 Z M 157.8125 182.382812 C 161.75 181.890625 164.828125 180.046875 167.039062 176.855469 C 169.253906 173.660156 170.113281 170.101562 169.621094 166.171875 C 169.230469 163.046875 167.859375 160.609375 165.511719 158.855469 C 163.164062 157.101562 160.300781 156.433594 156.917969 156.855469 C 152.980469 157.347656 149.90625 159.191406 147.691406 162.386719 C 145.476562 165.578125 144.617188 169.140625 145.109375 173.070312 C 145.503906 176.195312 146.871094 178.632812 149.21875 180.386719 C 151.566406 182.140625 154.433594 182.804688 157.8125 182.382812 Z M 157.8125 182.382812 "/><path style=" stroke:none;fill-rule:nonzero;fill:#ffffff;fill-opacity:1;" d="M 216.660156 188.691406 C 209.089844 189.636719 202.535156 188.269531 197 184.585938 C 191.464844 180.902344 188.265625 175.660156 187.414062 168.855469 C 186.398438 160.746094 188.425781 153.519531 193.5 147.179688 C 198.578125 140.839844 205.453125 137.128906 214.136719 136.042969 C 221.65625 135.105469 228.183594 136.464844 233.71875 140.121094 C 239.25 143.78125 242.441406 148.984375 243.289062 155.738281 C 244.3125 163.898438 242.300781 171.160156 237.253906 177.523438 C 232.207031 183.882812 225.339844 187.605469 216.660156 188.691406 Z M 215.808594 175.136719 C 219.746094 174.644531 222.820312 172.800781 225.035156 169.609375 C 227.25 166.414062 228.109375 162.855469 227.613281 158.925781 C 227.222656 155.800781 225.851562 153.363281 223.507812 151.609375 C 221.160156 149.855469 218.292969 149.1875 214.914062 149.613281 C 210.976562 150.105469 207.898438 151.945312 205.6875 155.140625 C 203.472656 158.332031 202.613281 161.894531 203.105469 165.824219 C 203.496094 168.949219 204.867188 171.386719 207.214844 173.140625 C 209.5625 174.894531 212.425781 175.558594 215.808594 175.136719 Z M 215.808594 175.136719 "/><path style=" stroke:none;fill-rule:nonzero;fill:#ffffff;fill-opacity:1;" d="M 294.679688 178.023438 L 279.992188 179.859375 L 263.84375 155.316406 L 261.371094 182.183594 L 246.078125 184.09375 L 250.882812 132.296875 L 266.632812 130.328125 L 281.816406 153.300781 L 284.195312 128.132812 L 299.488281 126.222656 Z M 294.679688 178.023438 "/><path style=" stroke:none;fill-rule:nonzero;fill:#000000;fill-opacity:1;" d="M 118.386719 96.179688 C 118.386719 96.472656 118.355469 96.761719 118.300781 97.050781 C 118.242188 97.335938 118.15625 97.613281 118.046875 97.886719 C 117.933594 98.15625 117.796875 98.410156 117.632812 98.65625 C 117.46875 98.898438 117.285156 99.125 117.078125 99.332031 C 116.871094 99.535156 116.644531 99.722656 116.402344 99.882812 C 116.15625 100.046875 115.902344 100.183594 115.628906 100.296875 C 115.359375 100.40625 115.082031 100.492188 114.792969 100.550781 C 114.503906 100.605469 114.214844 100.636719 113.921875 100.636719 C 113.628906 100.636719 113.339844 100.605469 113.050781 100.550781 C 112.765625 100.492188 112.484375 100.40625 112.214844 100.296875 C 111.945312 100.183594 111.6875 100.046875 111.441406 99.882812 C 111.199219 99.722656 110.972656 99.535156 110.765625 99.332031 C 110.558594 99.125 110.375 98.898438 110.210938 98.65625 C 110.046875 98.410156 109.910156 98.15625 109.800781 97.886719 C 109.6875 97.613281 109.601562 97.335938 109.546875 97.050781 C 109.488281 96.761719 109.460938 96.472656 109.460938 96.179688 C 109.460938 95.886719 109.488281 95.597656 109.546875 95.3125 C 109.601562 95.023438 109.6875 94.746094 109.800781 94.476562 C 109.910156 94.207031 110.046875 93.949219 110.210938 93.707031 C 110.375 93.460938 110.558594 93.238281 110.765625 93.03125 C 110.972656 92.824219 111.199219 92.640625 111.441406 92.476562 C 111.6875 92.3125 111.945312 92.175781 112.214844 92.066406 C 112.484375 91.953125 112.765625 91.867188 113.050781 91.8125 C 113.339844 91.753906 113.628906 91.726562 113.921875 91.726562 C 114.214844 91.726562 114.503906 91.753906 114.792969 91.8125 C 115.082031 91.867188 115.359375 91.953125 115.628906 92.066406 C 115.902344 92.175781 116.15625 92.3125 116.402344 92.476562 C 116.644531 92.640625 116.871094 92.824219 117.078125 93.03125 C 117.285156 93.238281 117.46875 93.460938 117.632812 93.707031 C 117.796875 93.949219 117.933594 94.207031 118.046875 94.476562 C 118.15625 94.746094 118.242188 95.023438 118.300781 95.3125 C 118.355469 95.597656 118.386719 95.886719 118.386719 96.179688 Z M 118.386719 96.179688 "/><path style=" stroke:none;fill-rule:nonzero;fill:#000000;fill-opacity:1;" d="M 287.109375 74.535156 C 287.109375 74.828125 287.082031 75.121094 287.023438 75.40625 C 286.96875 75.691406 286.882812 75.972656 286.769531 76.242188 C 286.660156 76.511719 286.523438 76.769531 286.359375 77.011719 C 286.195312 77.253906 286.011719 77.480469 285.804688 77.6875 C 285.597656 77.894531 285.371094 78.078125 285.128906 78.242188 C 284.882812 78.402344 284.625 78.539062 284.355469 78.652344 C 284.085938 78.765625 283.804688 78.847656 283.519531 78.90625 C 283.230469 78.964844 282.941406 78.992188 282.648438 78.992188 C 282.355469 78.992188 282.066406 78.964844 281.777344 78.90625 C 281.492188 78.847656 281.210938 78.765625 280.941406 78.652344 C 280.671875 78.539062 280.414062 78.402344 280.167969 78.242188 C 279.925781 78.078125 279.699219 77.894531 279.492188 77.6875 C 279.285156 77.480469 279.101562 77.253906 278.9375 77.011719 C 278.773438 76.769531 278.636719 76.511719 278.527344 76.242188 C 278.414062 75.972656 278.328125 75.691406 278.273438 75.40625 C 278.214844 75.121094 278.1875 74.828125 278.1875 74.535156 C 278.1875 74.246094 278.214844 73.953125 278.273438 73.667969 C 278.328125 73.382812 278.414062 73.101562 278.527344 72.832031 C 278.636719 72.5625 278.773438 72.304688 278.9375 72.0625 C 279.101562 71.820312 279.285156 71.59375 279.492188 71.386719 C 279.699219 71.179688 279.925781 70.996094 280.167969 70.832031 C 280.414062 70.671875 280.671875 70.535156 280.941406 70.421875 C 281.210938 70.308594 281.492188 70.226562 281.777344 70.167969 C 282.066406 70.109375 282.355469 70.082031 282.648438 70.082031 C 282.941406 70.082031 283.230469 70.109375 283.519531 70.167969 C 283.804688 70.226562 284.085938 70.308594 284.355469 70.421875 C 284.625 70.535156 284.882812 70.671875 285.128906 70.832031 C 285.371094 70.996094 285.597656 71.179688 285.804688 71.386719 C 286.011719 71.59375 286.195312 71.820312 286.359375 72.0625 C 286.523438 72.304688 286.660156 72.5625 286.769531 72.832031 C 286.882812 73.101562 286.96875 73.382812 287.023438 73.667969 C 287.082031 73.953125 287.109375 74.246094 287.109375 74.535156 Z M 287.109375 74.535156 "/><path style=" stroke:none;fill-rule:nonzero;fill:#000000;fill-opacity:1;" d="M 280.632812 0.015625 L 284.664062 0.015625 L 284.664062 74.535156 L 280.632812 74.535156 Z M 280.632812 0.015625 "/><path style=" stroke:none;fill-rule:nonzero;fill:#000000;fill-opacity:1;" d="M 112.027344 0.015625 L 116.058594 0.015625 L 116.058594 94.375 L 112.027344 94.375 Z M 112.027344 0.015625 "/><g clip-rule="nonzero" clip-path="url(#abc5677c59)"><path style=" stroke:none;fill-rule:nonzero;fill:#000000;fill-opacity:1;" d="M 354.730469 70.261719 C 352.117188 65.273438 348.019531 61.191406 342.542969 58.121094 C 338.179688 55.675781 333.234375 54.445312 327.839844 54.445312 C 326.308594 54.445312 324.710938 54.539062 323.105469 54.742188 C 314.652344 55.796875 307.472656 58.621094 301.667969 63.148438 L 302.128906 58.210938 L 270.453125 62.164062 L 269.613281 71.015625 L 264.28125 62.9375 L 245.34375 65.304688 L 238.851562 66.117188 L 237.128906 66.324219 L 221.875 68.234375 L 185.683594 72.757812 L 181.765625 81.847656 L 179.480469 73.53125 L 145.515625 77.773438 L 144.445312 89.410156 C 143.164062 88.199219 141.765625 87.082031 140.242188 86.074219 C 134.515625 82.292969 127.933594 80.367188 120.6875 80.367188 C 118.90625 80.367188 117.058594 80.488281 115.207031 80.722656 C 104.40625 82.066406 95.679688 86.816406 89.265625 94.820312 C 89.265625 94.828125 89.265625 94.828125 89.257812 94.835938 C 88.097656 93.796875 86.839844 92.824219 85.492188 91.90625 C 82.5 89.878906 78.910156 88.4375 74.828125 87.632812 C 72.585938 87.195312 70.222656 86.972656 67.8125 86.972656 C 66.070312 86.972656 64.261719 87.085938 62.433594 87.316406 C 51.808594 88.644531 43.140625 93.21875 36.664062 100.914062 C 30.023438 108.789062 27.355469 118.28125 28.710938 129.117188 C 29.871094 138.382812 34.492188 145.847656 42.066406 150.710938 C 47.824219 154.414062 54.367188 156.292969 61.511719 156.292969 C 63.289062 156.292969 65.117188 156.171875 66.964844 155.9375 C 72.175781 155.292969 77.289062 153.511719 82.160156 150.65625 C 85.925781 148.449219 89.148438 145.492188 91.800781 141.855469 C 92.652344 142.574219 93.550781 143.246094 94.503906 143.886719 C 89.597656 145.664062 85.554688 148.449219 82.460938 152.210938 C 77.703125 157.992188 75.644531 164.722656 76.515625 171.660156 C 76.984375 175.367188 78.410156 178.730469 80.683594 181.523438 L 70.773438 196.941406 L 75.683594 201.523438 C 79.578125 205.152344 84.601562 207.769531 90.621094 209.308594 C 94.292969 210.242188 98.144531 210.714844 102.097656 210.714844 C 104.253906 210.714844 106.476562 210.570312 108.710938 210.296875 C 117.097656 209.242188 123.792969 205.957031 128.59375 200.515625 C 129.761719 199.195312 130.761719 197.800781 131.617188 196.335938 C 132.539062 197.109375 133.496094 197.851562 134.53125 198.535156 C 140.265625 202.34375 146.863281 204.285156 154.152344 204.285156 C 155.9375 204.285156 157.792969 204.164062 159.664062 203.929688 C 170.480469 202.574219 179.199219 197.808594 185.578125 189.765625 C 186.261719 188.90625 186.898438 188.019531 187.496094 187.125 C 188.980469 188.65625 190.667969 190.046875 192.523438 191.289062 C 198.257812 195.097656 204.855469 197.035156 212.144531 197.035156 C 213.929688 197.035156 215.792969 196.914062 217.664062 196.679688 C 225.398438 195.714844 232.050781 192.992188 237.550781 188.582031 L 237.109375 193.328125 L 268.796875 189.371094 L 269.757812 178.976562 L 276 188.46875 L 302.109375 185.207031 L 308.003906 121.667969 C 312.011719 123.140625 316.28125 123.898438 320.757812 123.898438 C 322.507812 123.898438 324.304688 123.777344 326.121094 123.554688 C 331.839844 122.84375 337.039062 121.011719 341.582031 118.109375 C 345.519531 115.597656 348.785156 112.4375 351.300781 108.675781 L 355.097656 70.972656 Z M 67.0625 124.429688 C 67.011719 124.566406 66.722656 124.96875 66.003906 125.5 C 65.296875 126.03125 64.65625 126.339844 64.109375 126.402344 C 63.800781 126.445312 63.519531 126.460938 63.253906 126.460938 C 62.269531 126.460938 61.8125 126.203125 61.449219 125.929688 C 60.777344 125.40625 60.519531 124.9375 60.410156 124.085938 C 60.175781 122.1875 60.5625 120.632812 61.675781 119.046875 C 62.628906 117.6875 63.714844 117.042969 65.441406 116.832031 C 65.675781 116.796875 65.894531 116.785156 66.085938 116.785156 C 66.75 116.785156 67.101562 116.945312 67.359375 117.089844 C 67.628906 117.25 67.804688 117.386719 67.972656 117.910156 L 68.699219 120.140625 Z M 120.472656 117.691406 C 119.566406 118.988281 118.527344 119.609375 116.875 119.808594 C 116.550781 119.847656 116.246094 119.875 115.960938 119.875 C 114.9375 119.875 114.453125 119.617188 114.117188 119.355469 C 113.707031 119.050781 113.328125 118.679688 113.179688 117.488281 C 112.933594 115.515625 113.300781 113.945312 114.390625 112.382812 C 115.296875 111.078125 116.335938 110.46875 117.988281 110.257812 C 118.304688 110.21875 118.609375 110.203125 118.894531 110.203125 C 119.917969 110.203125 120.410156 110.460938 120.75 110.710938 C 121.152344 111.023438 121.539062 111.394531 121.683594 112.585938 C 121.929688 114.550781 121.554688 116.128906 120.472656 117.691406 Z M 130.359375 148.019531 C 129.925781 147.722656 129.480469 147.433594 129.03125 147.160156 C 130.265625 146.707031 131.464844 146.214844 132.628906 145.652344 C 131.84375 146.410156 131.085938 147.191406 130.359375 148.019531 Z M 160.402344 172.269531 C 159.5 173.574219 158.460938 174.1875 156.808594 174.394531 C 156.484375 174.433594 156.179688 174.453125 155.894531 174.453125 C 154.871094 174.453125 154.386719 174.195312 154.050781 173.9375 C 153.636719 173.628906 153.257812 173.257812 153.113281 172.066406 C 152.863281 170.105469 153.234375 168.523438 154.324219 166.964844 C 155.226562 165.667969 156.269531 165.046875 157.921875 164.84375 C 158.246094 164.804688 158.542969 164.78125 158.824219 164.78125 C 159.851562 164.78125 160.339844 165.046875 160.671875 165.296875 C 161.082031 165.601562 161.460938 165.976562 161.617188 167.167969 C 161.867188 169.128906 161.484375 170.707031 160.402344 172.269531 Z M 187.199219 142.152344 C 186.496094 143.03125 185.84375 143.921875 185.238281 144.832031 C 183.808594 143.367188 182.207031 142.03125 180.429688 140.839844 L 189.308594 139.730469 C 188.585938 140.5 187.875 141.304688 187.199219 142.152344 Z M 218.398438 165.023438 C 217.492188 166.328125 216.453125 166.941406 214.800781 167.148438 C 214.476562 167.191406 214.171875 167.207031 213.886719 167.207031 C 212.871094 167.207031 212.386719 166.949219 212.042969 166.691406 C 211.632812 166.382812 211.25 166.011719 211.105469 164.820312 C 210.855469 162.859375 211.234375 161.277344 212.316406 159.71875 C 213.222656 158.421875 214.261719 157.800781 215.914062 157.601562 C 216.238281 157.558594 216.542969 157.535156 216.816406 157.535156 C 217.84375 157.535156 218.335938 157.792969 218.671875 158.050781 C 219.085938 158.359375 219.464844 158.730469 219.609375 159.921875 C 219.859375 161.882812 219.484375 163.460938 218.398438 165.023438 Z M 242.367188 136.738281 C 241.167969 135.605469 239.851562 134.550781 238.433594 133.59375 L 242.707031 133.0625 Z M 263.21875 122.640625 L 263.445312 120.195312 L 264.914062 122.425781 Z M 275.929688 129.792969 L 275.398438 128.972656 L 276.019531 128.898438 Z M 296.53125 118.480469 L 296.859375 114.9375 C 298.03125 116.03125 299.3125 117.039062 300.691406 117.957031 Z M 296.53125 118.480469 "/></g><path style=" stroke:none;fill-rule:nonzero;fill:#ffffff;fill-opacity:1;" d="M 65.964844 147.949219 C 58.546875 148.878906 52.035156 147.542969 46.433594 143.945312 C 40.828125 140.34375 37.589844 135.070312 36.71875 128.117188 C 35.644531 119.550781 37.683594 112.210938 42.839844 106.089844 C 47.992188 99.972656 54.859375 96.375 63.441406 95.304688 C 66.972656 94.863281 70.25 94.941406 73.273438 95.535156 C 76.292969 96.128906 78.855469 97.140625 80.957031 98.566406 C 83.058594 99.992188 84.832031 101.5625 86.277344 103.273438 C 87.722656 104.988281 88.882812 106.886719 89.761719 108.980469 L 75.652344 115.425781 C 74.902344 113.113281 73.5 111.355469 71.453125 110.152344 C 69.40625 108.949219 67.070312 108.515625 64.445312 108.839844 C 60.457031 109.339844 57.335938 111.203125 55.074219 114.425781 C 52.8125 117.652344 51.925781 121.203125 52.410156 125.082031 C 52.785156 128.058594 54.148438 130.457031 56.503906 132.289062 C 58.863281 134.117188 61.730469 134.820312 65.113281 134.398438 C 67.082031 134.152344 68.992188 133.335938 70.84375 131.953125 C 72.691406 130.574219 73.945312 129.019531 74.601562 127.300781 L 87.53125 133.511719 C 85.171875 138.003906 82.023438 141.40625 78.085938 143.710938 C 74.144531 146.019531 70.105469 147.433594 65.964844 147.949219 Z M 65.964844 147.949219 "/><path style=" stroke:none;fill-rule:nonzero;fill:#ffffff;fill-opacity:1;" d="M 118.734375 141.359375 C 111.164062 142.304688 104.609375 140.933594 99.074219 137.25 C 93.535156 133.566406 90.339844 128.324219 89.488281 121.523438 C 88.46875 113.410156 90.496094 106.1875 95.574219 99.847656 C 100.648438 93.507812 107.527344 89.792969 116.207031 88.710938 C 123.730469 87.769531 130.257812 89.128906 135.789062 92.789062 C 141.324219 96.445312 144.511719 101.652344 145.359375 108.402344 C 146.382812 116.566406 144.371094 123.828125 139.328125 130.1875 C 134.28125 136.550781 127.417969 140.273438 118.734375 141.359375 Z M 117.878906 127.800781 C 121.816406 127.308594 124.894531 125.464844 127.105469 122.273438 C 129.320312 119.078125 130.179688 115.519531 129.6875 111.589844 C 129.296875 108.464844 127.925781 106.027344 125.578125 104.269531 C 123.234375 102.519531 120.367188 101.851562 116.984375 102.273438 C 113.050781 102.765625 109.972656 104.609375 107.761719 107.804688 C 105.546875 110.996094 104.683594 114.558594 105.179688 118.488281 C 105.570312 121.613281 106.9375 124.050781 109.289062 125.804688 C 111.632812 127.558594 114.496094 128.222656 117.878906 127.800781 Z M 117.878906 127.800781 "/><path style=" stroke:none;fill-rule:nonzero;fill:#ffffff;fill-opacity:1;" d="M 208.109375 129.265625 L 192.816406 131.179688 L 195.679688 100.039062 L 181.535156 132.585938 L 174.722656 133.4375 L 166.304688 103.710938 L 163.441406 134.847656 L 148.148438 136.761719 L 152.957031 84.960938 L 173.550781 82.386719 L 180.066406 106.136719 L 191.265625 80.175781 L 212.921875 77.46875 Z M 208.109375 129.265625 "/><path style=" stroke:none;fill-rule:nonzero;fill:#ffffff;fill-opacity:1;" d="M 231.582031 126.335938 L 216.289062 128.246094 L 221.09375 76.449219 L 236.386719 74.535156 Z M 231.582031 126.335938 "/><path style=" stroke:none;fill-rule:nonzero;fill:#ffffff;fill-opacity:1;" d="M 288.363281 119.238281 L 273.675781 121.074219 L 257.527344 96.535156 L 255.050781 123.402344 L 239.757812 125.3125 L 244.566406 73.515625 L 260.3125 71.546875 L 275.496094 94.519531 L 277.878906 69.351562 L 293.171875 67.441406 Z M 288.363281 119.238281 "/><path style=" stroke:none;fill-rule:nonzero;fill:#ffffff;fill-opacity:1;" d="M 325.121094 115.570312 C 317.851562 116.476562 311.382812 115.164062 305.710938 111.625 C 300.035156 108.085938 296.757812 102.789062 295.875 95.734375 C 294.824219 87.375 296.910156 80.078125 302.125 73.84375 C 307.339844 67.617188 314.671875 63.910156 324.109375 62.734375 C 329.660156 62.039062 334.488281 62.84375 338.597656 65.144531 C 342.707031 67.445312 345.703125 70.398438 347.589844 74 L 334.230469 81.503906 C 333.621094 79.941406 332.292969 78.632812 330.238281 77.585938 C 328.1875 76.539062 325.972656 76.164062 323.601562 76.460938 C 319.765625 76.941406 316.671875 78.757812 314.328125 81.917969 C 311.980469 85.078125 311.058594 88.671875 311.566406 92.703125 C 311.925781 95.574219 313.261719 97.953125 315.574219 99.839844 C 317.886719 101.726562 320.785156 102.449219 324.269531 102.015625 C 326.789062 101.699219 328.992188 100.65625 330.875 98.886719 L 331.015625 96.949219 L 321.628906 98.125 L 322.988281 84.445312 L 347.59375 81.371094 L 345.574219 102.65625 C 343.554688 106.183594 340.777344 109.074219 337.242188 111.332031 C 333.703125 113.585938 329.664062 115 325.121094 115.570312 Z M 325.121094 115.570312 "/><path style=" stroke:none;fill-rule:nonzero;fill:#ffffff;fill-opacity:1;" d="M 107.714844 202.304688 C 102.367188 202.972656 97.332031 202.707031 92.621094 201.503906 C 87.90625 200.304688 84.097656 198.347656 81.195312 195.640625 L 88.917969 183.621094 C 90.96875 185.667969 93.699219 187.207031 97.109375 188.242188 C 100.519531 189.273438 103.914062 189.578125 107.296875 189.15625 C 108.609375 188.992188 109.578125 188.640625 110.203125 188.101562 C 110.828125 187.5625 111.105469 187.019531 111.035156 186.460938 C 110.941406 185.707031 110.019531 185.105469 108.273438 184.65625 C 106.527344 184.210938 104.417969 183.757812 101.953125 183.296875 C 99.484375 182.835938 97.011719 182.214844 94.527344 181.421875 C 92.042969 180.632812 89.839844 179.320312 87.921875 177.488281 C 86 175.65625 84.867188 173.382812 84.527344 170.660156 C 83.925781 165.875 85.316406 161.425781 88.699219 157.320312 C 92.078125 153.214844 97.148438 150.738281 103.914062 149.890625 C 108.105469 149.367188 112.230469 149.582031 116.296875 150.53125 C 120.363281 151.480469 123.929688 153.148438 127 155.527344 L 119.164062 167.253906 C 116.949219 165.535156 114.347656 164.320312 111.363281 163.621094 C 108.378906 162.917969 105.601562 162.730469 103.027344 163.050781 C 102.066406 163.171875 101.332031 163.453125 100.824219 163.902344 C 100.316406 164.347656 100.101562 164.875 100.179688 165.480469 C 100.265625 166.183594 101.183594 166.761719 102.933594 167.207031 C 104.679688 167.652344 106.789062 168.121094 109.257812 168.601562 C 111.730469 169.085938 114.21875 169.722656 116.726562 170.511719 C 119.234375 171.296875 121.449219 172.605469 123.371094 174.4375 C 125.292969 176.269531 126.425781 178.546875 126.765625 181.269531 C 127.433594 186.609375 126.03125 191.25 122.550781 195.1875 C 119.070312 199.132812 114.125 201.503906 107.714844 202.304688 Z M 107.714844 202.304688 "/><path style=" stroke:none;fill-rule:nonzero;fill:#ffffff;fill-opacity:1;" d="M 158.667969 195.9375 C 151.097656 196.882812 144.542969 195.515625 139.003906 191.832031 C 133.46875 188.148438 130.273438 182.90625 129.421875 176.101562 C 128.402344 167.992188 130.429688 160.765625 135.507812 154.425781 C 140.582031 148.085938 147.460938 144.375 156.140625 143.289062 C 163.664062 142.351562 170.1875 143.710938 175.722656 147.367188 C 181.257812 151.027344 184.445312 156.230469 185.292969 162.984375 C 186.316406 171.144531 184.304688 178.40625 179.257812 184.769531 C 174.214844 191.128906 167.347656 194.855469 158.667969 195.9375 Z M 157.8125 182.382812 C 161.75 181.890625 164.828125 180.046875 167.039062 176.855469 C 169.253906 173.660156 170.113281 170.101562 169.621094 166.171875 C 169.230469 163.046875 167.859375 160.609375 165.511719 158.855469 C 163.164062 157.101562 160.300781 156.433594 156.917969 156.855469 C 152.980469 157.347656 149.90625 159.191406 147.691406 162.386719 C 145.476562 165.578125 144.617188 169.140625 145.109375 173.070312 C 145.503906 176.195312 146.871094 178.632812 149.21875 180.386719 C 151.566406 182.140625 154.433594 182.804688 157.8125 182.382812 Z M 157.8125 182.382812 "/><path style=" stroke:none;fill-rule:nonzero;fill:#ffffff;fill-opacity:1;" d="M 216.660156 188.691406 C 209.089844 189.636719 202.535156 188.269531 197 184.585938 C 191.464844 180.902344 188.265625 175.660156 187.414062 168.855469 C 186.398438 160.746094 188.425781 153.519531 193.5 147.179688 C 198.578125 140.839844 205.453125 137.128906 214.136719 136.042969 C 221.65625 135.105469 228.183594 136.464844 233.71875 140.121094 C 239.25 143.78125 242.441406 148.984375 243.289062 155.738281 C 244.3125 163.898438 242.300781 171.160156 237.253906 177.523438 C 232.207031 183.882812 225.339844 187.605469 216.660156 188.691406 Z M 215.808594 175.136719 C 219.746094 174.644531 222.820312 172.800781 225.035156 169.609375 C 227.25 166.414062 228.109375 162.855469 227.613281 158.925781 C 227.222656 155.800781 225.851562 153.363281 223.507812 151.609375 C 221.160156 149.855469 218.292969 149.1875 214.914062 149.613281 C 210.976562 150.105469 207.898438 151.945312 205.6875 155.140625 C 203.472656 158.332031 202.613281 161.894531 203.105469 165.824219 C 203.496094 168.949219 204.867188 171.386719 207.214844 173.140625 C 209.5625 174.894531 212.425781 175.558594 215.808594 175.136719 Z M 215.808594 175.136719 "/><path style=" stroke:none;fill-rule:nonzero;fill:#ffffff;fill-opacity:1;" d="M 294.679688 178.023438 L 279.992188 179.859375 L 263.84375 155.316406 L 261.371094 182.183594 L 246.078125 184.09375 L 250.882812 132.296875 L 266.632812 130.328125 L 281.816406 153.300781 L 284.195312 128.132812 L 299.488281 126.222656 Z M 294.679688 178.023438 "/><path style=" stroke:none;fill-rule:nonzero;fill:#000000;fill-opacity:1;" d="M 118.386719 96.179688 C 118.386719 96.472656 118.355469 96.761719 118.300781 97.050781 C 118.242188 97.335938 118.15625 97.613281 118.046875 97.886719 C 117.933594 98.15625 117.796875 98.410156 117.632812 98.65625 C 117.46875 98.898438 117.285156 99.125 117.078125 99.332031 C 116.871094 99.535156 116.644531 99.722656 116.402344 99.882812 C 116.15625 100.046875 115.902344 100.183594 115.628906 100.296875 C 115.359375 100.40625 115.082031 100.492188 114.792969 100.550781 C 114.503906 100.605469 114.214844 100.636719 113.921875 100.636719 C 113.628906 100.636719 113.339844 100.605469 113.050781 100.550781 C 112.765625 100.492188 112.484375 100.40625 112.214844 100.296875 C 111.945312 100.183594 111.6875 100.046875 111.441406 99.882812 C 111.199219 99.722656 110.972656 99.535156 110.765625 99.332031 C 110.558594 99.125 110.375 98.898438 110.210938 98.65625 C 110.046875 98.410156 109.910156 98.15625 109.800781 97.886719 C 109.6875 97.613281 109.601562 97.335938 109.546875 97.050781 C 109.488281 96.761719 109.460938 96.472656 109.460938 96.179688 C 109.460938 95.886719 109.488281 95.597656 109.546875 95.3125 C 109.601562 95.023438 109.6875 94.746094 109.800781 94.476562 C 109.910156 94.207031 110.046875 93.949219 110.210938 93.707031 C 110.375 93.460938 110.558594 93.238281 110.765625 93.03125 C 110.972656 92.824219 111.199219 92.640625 111.441406 92.476562 C 111.6875 92.3125 111.945312 92.175781 112.214844 92.066406 C 112.484375 91.953125 112.765625 91.867188 113.050781 91.8125 C 113.339844 91.753906 113.628906 91.726562 113.921875 91.726562 C 114.214844 91.726562 114.503906 91.753906 114.792969 91.8125 C 115.082031 91.867188 115.359375 91.953125 115.628906 92.066406 C 115.902344 92.175781 116.15625 92.3125 116.402344 92.476562 C 116.644531 92.640625 116.871094 92.824219 117.078125 93.03125 C 117.285156 93.238281 117.46875 93.460938 117.632812 93.707031 C 117.796875 93.949219 117.933594 94.207031 118.046875 94.476562 C 118.15625 94.746094 118.242188 95.023438 118.300781 95.3125 C 118.355469 95.597656 118.386719 95.886719 118.386719 96.179688 Z M 118.386719 96.179688 "/><path style=" stroke:none;fill-rule:nonzero;fill:#000000;fill-opacity:1;" d="M 287.109375 74.535156 C 287.109375 74.828125 287.082031 75.121094 287.023438 75.40625 C 286.96875 75.691406 286.882812 75.972656 286.769531 76.242188 C 286.660156 76.511719 286.523438 76.769531 286.359375 77.011719 C 286.195312 77.253906 286.011719 77.480469 285.804688 77.6875 C 285.597656 77.894531 285.371094 78.078125 285.128906 78.242188 C 284.882812 78.402344 284.625 78.539062 284.355469 78.652344 C 284.085938 78.765625 283.804688 78.847656 283.519531 78.90625 C 283.230469 78.964844 282.941406 78.992188 282.648438 78.992188 C 282.355469 78.992188 282.066406 78.964844 281.777344 78.90625 C 281.492188 78.847656 281.210938 78.765625 280.941406 78.652344 C 280.671875 78.539062 280.414062 78.402344 280.167969 78.242188 C 279.925781 78.078125 279.699219 77.894531 279.492188 77.6875 C 279.285156 77.480469 279.101562 77.253906 278.9375 77.011719 C 278.773438 76.769531 278.636719 76.511719 278.527344 76.242188 C 278.414062 75.972656 278.328125 75.691406 278.273438 75.40625 C 278.214844 75.121094 278.1875 74.828125 278.1875 74.535156 C 278.1875 74.246094 278.214844 73.953125 278.273438 73.667969 C 278.328125 73.382812 278.414062 73.101562 278.527344 72.832031 C 278.636719 72.5625 278.773438 72.304688 278.9375 72.0625 C 279.101562 71.820312 279.285156 71.59375 279.492188 71.386719 C 279.699219 71.179688 279.925781 70.996094 280.167969 70.832031 C 280.414062 70.671875 280.671875 70.535156 280.941406 70.421875 C 281.210938 70.308594 281.492188 70.226562 281.777344 70.167969 C 282.066406 70.109375 282.355469 70.082031 282.648438 70.082031 C 282.941406 70.082031 283.230469 70.109375 283.519531 70.167969 C 283.804688 70.226562 284.085938 70.308594 284.355469 70.421875 C 284.625 70.535156 284.882812 70.671875 285.128906 70.832031 C 285.371094 70.996094 285.597656 71.179688 285.804688 71.386719 C 286.011719 71.59375 286.195312 71.820312 286.359375 72.0625 C 286.523438 72.304688 286.660156 72.5625 286.769531 72.832031 C 286.882812 73.101562 286.96875 73.382812 287.023438 73.667969 C 287.082031 73.953125 287.109375 74.246094 287.109375 74.535156 Z M 287.109375 74.535156 "/><path style=" stroke:none;fill-rule:nonzero;fill:#000000;fill-opacity:1;" d="M 280.632812 0.015625 L 284.664062 0.015625 L 284.664062 74.535156 L 280.632812 74.535156 Z M 280.632812 0.015625 "/><path style=" stroke:none;fill-rule:nonzero;fill:#000000;fill-opacity:1;" d="M 112.027344 0.015625 L 116.058594 0.015625 L 116.058594 94.375 L 112.027344 94.375 Z M 112.027344 0.015625 "/></g></svg>